<svg width="100%" viewBox="0 0 900 700" xmlns="http://www.w3.org/2000/svg" style="background-color: #1a1a1a;">
  <defs>
    <marker id="arrow" viewBox="0 0 10 10" refX="8" refY="5" markerWidth="6" markerHeight="6" orient="auto-start-reverse">
      <path d="M2 1L8 5L2 9" fill="none" stroke="#999" stroke-width="1.5" stroke-linecap="round" stroke-linejoin="round"/>
    </marker>
  </defs>

  <!-- Title -->
  <text x="450" y="30" text-anchor="middle" font-size="24" font-weight="bold" fill="#fff">Flujo ERC-4337: UserOperation → Transacción Ethereum</text>

  <!-- Row 1: Cliente, Bundler, Paymaster -->

  <!-- Cliente -->
  <rect x="30" y="80" width="180" height="80" rx="8" fill="#3c348d" stroke="#afade" stroke-width="1"/>
  <text x="120" y="115" text-anchor="middle" font-size="16" font-weight="bold" fill="#ceccf6">Cliente / dApp</text>
  <text x="120" y="140" text-anchor="middle" font-size="13" fill="#afa9ec">Construye y firma</text>
  <text x="120" y="158" text-anchor="middle" font-size="13" fill="#afa9ec">la UserOperation</text>

  <!-- Arrow 1 -->
  <line x1="210" y1="120" x2="290" y2="120" marker-end="url(#arrow)" stroke="#666" stroke-width="2"/>
  <text x="250" y="110" text-anchor="middle" font-size="11" fill="#999">eth_sendUserOperation</text>

  <!-- Bundler -->
  <rect x="290" y="80" width="180" height="80" rx="8" fill="#63380b" stroke="#efa627" stroke-width="1"/>
  <text x="380" y="115" text-anchor="middle" font-size="16" font-weight="bold" fill="#fac775">Bundler</text>
  <text x="380" y="140" text-anchor="middle" font-size="13" fill="#efa627">Valida y agrega</text>
  <text x="380" y="158" text-anchor="middle" font-size="13" fill="#efa627">UserOperations</text>

  <!-- Arrow 2 -->
  <line x1="470" y1="120" x2="550" y2="120" marker-end="url(#arrow)" stroke="#666" stroke-width="2"/>

  <!-- Paymaster (optional) -->
  <rect x="550" y="80" width="180" height="80" rx="8" fill="#085041" stroke="#5dccaa" stroke-width="1"/>
  <text x="640" y="115" text-anchor="middle" font-size="16" font-weight="bold" fill="#9fe1cb">Paymaster</text>
  <text x="640" y="140" text-anchor="middle" font-size="13" fill="#5dccaa">Patrocina gas</text>
  <text x="640" y="158" text-anchor="middle" font-size="13" fill="#5dccaa">(Opcional)</text>

  <!-- Row 2: Alt Mempool -->
  <rect x="290" y="220" width="180" height="80" rx="8" fill="#444441" stroke="#b4b2a9" stroke-width="1"/>
  <text x="380" y="255" text-anchor="middle" font-size="16" font-weight="bold" fill="#d3d1c7">Alt Mempool</text>
  <text x="380" y="280" text-anchor="middle" font-size="13" fill="#b4b2a9">UserOps pendientes</text>
  <text x="380" y="298" text-anchor="middle" font-size="13" fill="#b4b2a9">(Red P2P)</text>

  <!-- Arrow Bundler -> Mempool -->
  <line x1="380" y1="160" x2="380" y2="218" marker-end="url(#arrow)" stroke="#666" stroke-width="2"/>

  <!-- Row 3: EntryPoint -->
  <rect x="290" y="360" width="180" height="80" rx="8" fill="#713b13" stroke="#f09a7b" stroke-width="1"/>
  <text x="380" y="395" text-anchor="middle" font-size="16" font-weight="bold" fill="#f5c4b3">EntryPoint</text>
  <text x="380" y="420" text-anchor="middle" font-size="13" fill="#f09a7b">handleOps()</text>
  <text x="380" y="438" text-anchor="middle" font-size="13" fill="#f09a7b">Verifica y ejecuta</text>

  <!-- Arrow Mempool -> EntryPoint -->
  <line x1="380" y1="300" x2="380" y2="358" marker-end="url(#arrow)" stroke="#666" stroke-width="2"/>
  <text x="420" y="335" text-anchor="start" font-size="11" fill="#999">Ethereum tx</text>
  <text x="420" y="350" text-anchor="start" font-size="11" fill="#999">from: Bundler EOA</text>

  <!-- Row 4: Smart Account y Contrato Destino -->

  <!-- Smart Account -->
  <rect x="80" y="540" width="180" height="80" rx="8" fill="#0c447c" stroke="#85b7eb" stroke-width="1"/>
  <text x="170" y="575" text-anchor="middle" font-size="16" font-weight="bold" fill="#b5d4f4">Smart Account</text>
  <text x="170" y="600" text-anchor="middle" font-size="13" fill="#85b7eb">validateUserOp()</text>
  <text x="170" y="618" text-anchor="middle" font-size="13" fill="#85b7eb">+ execute()</text>

  <!-- Arrow EntryPoint -> Smart Account -->
  <line x1="330" y1="440" x2="220" y2="540" marker-end="url(#arrow)" stroke="#666" stroke-width="2"/>
  <text x="260" y="485" text-anchor="middle" font-size="11" fill="#999">1. Valida firma</text>

  <!-- Target Contract -->
  <rect x="500" y="540" width="180" height="80" rx="8" fill="#444441" stroke="#b4b2a9" stroke-width="1"/>
  <text x="590" y="575" text-anchor="middle" font-size="16" font-weight="bold" fill="#d3d1c7">Contrato Destino</text>
  <text x="590" y="600" text-anchor="middle" font-size="13" fill="#b4b2a9">DEX, NFT, protocolo</text>
  <text x="590" y="618" text-anchor="middle" font-size="13" fill="#b4b2a9">o lo que necesites</text>

  <!-- Arrow Smart Account -> Target -->
  <line x1="260" y1="580" x2="498" y2="580" marker-end="url(#arrow)" stroke="#666" stroke-width="2"/>
  <text x="379" y="570" text-anchor="middle" font-size="11" fill="#999">2. Ejecuta callData</text>

  <!-- Arrow EntryPoint -> Bundler Reembolso -->
  <line x1="430" y1="400" x2="590" y2="540" marker-end="url(#arrow)" stroke="#666" stroke-width="2"/>
  <text x="550" y="460" text-anchor="middle" font-size="11" fill="#999">Reembolso ETH</text>
  <text x="550" y="475" text-anchor="middle" font-size="11" fill="#999">al Bundler</text>

  <!-- Legend -->
  <g transform="translate(30, 670)">
    <rect x="0" y="0" width="12" height="12" rx="2" fill="#f2a623" opacity="0.8"/>
    <text x="18" y="10" font-size="12" fill="#ccc">Infraestructura off-chain</text>

    <rect x="250" y="0" width="12" height="12" rx="2" fill="#3b8bd4" opacity="0.8"/>
    <text x="266" y="10" font-size="12" fill="#ccc">Contratos on-chain</text>

    <rect x="500" y="0" width="12" height="12" rx="2" fill="#5dcaa5" opacity="0.8"/>
    <text x="516" y="10" font-size="12" fill="#ccc">Componente opcional</text>
  </g>
</svg>